<svg width="25" height="24" viewBox="0 0 25 24" fill="none" xmlns="http://www.w3.org/2000/svg">
<path d="M3.5 10.5658C3.5 9.99143 3.5 9.70425 3.57403 9.43978C3.6396 9.20552 3.74737 8.98518 3.89203 8.78959C4.05534 8.56879 4.28202 8.39248 4.73539 8.03986L11.5177 2.76473C11.869 2.49148 12.0447 2.35485 12.2387 2.30233C12.4098 2.25599 12.5902 2.25599 12.7613 2.30233C12.9553 2.35485 13.131 2.49148 13.4823 2.76473L20.2646 8.03986C20.718 8.39248 20.9447 8.56879 21.108 8.78959C21.2526 8.98518 21.3604 9.20552 21.426 9.43978C21.5 9.70425 21.5 9.99143 21.5 10.5658V17.8007C21.5 18.9208 21.5 19.4809 21.282 19.9087C21.0903 20.285 20.7843 20.591 20.408 20.7827C19.9802 21.0007 19.4201 21.0007 18.3 21.0007H6.7C5.5799 21.0007 5.01984 21.0007 4.59202 20.7827C4.21569 20.591 3.90973 20.285 3.71799 19.9087C3.5 19.4809 3.5 18.9208 3.5 17.8007V10.5658Z" fill="#F4F4F7" fill-opacity="0.8"/>
</svg>
