<svg width="89" height="88" viewBox="0 0 89 88" fill="none" xmlns="http://www.w3.org/2000/svg">
<circle cx="44.5" cy="44" r="44" fill="url(#paint0_linear_196_1137)"/>
<g clip-path="url(#clip0_196_1137)">
<path d="M47.2803 32.4634C49.3814 32.4634 51.0615 32.4615 52.377 32.644C53.7246 32.8311 54.8376 33.2295 55.7148 34.1353C56.5874 35.0365 56.9673 36.1716 57.1465 37.5474C57.3223 38.8979 57.3203 40.6256 57.3203 42.7983C57.3203 44.9711 57.3223 46.6987 57.1465 48.0493C56.9673 49.4254 56.5878 50.5611 55.7148 51.4624C55.0546 52.1441 54.2609 52.5372 53.334 52.77L54.2666 54.6343C54.5134 55.1281 54.313 55.729 53.8193 55.9761C53.3255 56.2227 52.7245 56.0225 52.4775 55.5288L51.2441 53.062C50.1344 53.1333 48.8204 53.1333 47.2803 53.1333H42.7598C41.219 53.1333 39.905 53.1335 38.7949 53.062L37.5625 55.5288C37.3155 56.0225 36.7145 56.2228 36.2207 55.9761C35.7268 55.7291 35.5267 55.1282 35.7734 54.6343L36.7051 52.77C35.7788 52.5369 34.9851 52.1429 34.3252 51.4614C33.4527 50.5602 33.0727 49.425 32.8936 48.0493C32.7177 46.6987 32.7197 44.9711 32.7197 42.7983C32.7197 40.6256 32.7177 38.8979 32.8936 37.5474C33.0727 36.1716 33.4526 35.0365 34.3252 34.1353C35.2024 33.2294 36.3155 32.8312 37.6631 32.644C38.9785 32.4615 40.6586 32.4634 42.7598 32.4634H47.2803ZM19.0938 33.7446C19.4813 33.3514 20.1144 33.3465 20.5078 33.7339C20.901 34.1214 20.9058 34.7545 20.5186 35.1479C18.6489 37.0465 17.5216 39.5597 17.5215 42.3071C17.5216 45.0546 18.6488 47.5677 20.5186 49.4663C20.9061 49.8598 20.9013 50.4938 20.5078 50.8813C20.1145 51.2684 19.4812 51.2635 19.0938 50.8706C16.8846 48.6275 15.5216 45.62 15.5215 42.3071C15.5216 38.9944 16.8847 35.9877 19.0938 33.7446ZM69.5293 33.7339C69.9227 33.3464 70.5558 33.3514 70.9434 33.7446C73.1525 35.9877 74.5155 38.9943 74.5156 42.3071C74.5156 45.62 73.1526 48.6275 70.9434 50.8706C70.5558 51.2635 69.9226 51.2686 69.5293 50.8813C69.1358 50.4939 69.1311 49.8598 69.5186 49.4663C71.3884 47.5677 72.5156 45.0547 72.5156 42.3071C72.5155 39.5596 71.3884 37.0465 69.5186 35.1479C69.1313 34.7545 69.1362 34.1214 69.5293 33.7339ZM42.7598 34.4634C40.6001 34.4634 39.0836 34.4654 37.9375 34.6245C36.8238 34.7792 36.2083 35.0648 35.7617 35.5259C35.3108 35.9915 35.0287 36.6405 34.877 37.8062C34.7219 38.9975 34.7197 40.5709 34.7197 42.7983C34.7197 45.0257 34.7219 46.5991 34.877 47.7905C35.0098 48.8106 35.2424 49.4353 35.6006 49.8872L35.7617 50.0708L35.9385 50.2358C36.3705 50.6013 36.9634 50.8369 37.9375 50.9722C39.0836 51.1313 40.6001 51.1333 42.7598 51.1333H47.2803C49.4399 51.1333 50.9565 51.1312 52.1025 50.9722C53.2164 50.8175 53.8318 50.5319 54.2783 50.0708L54.4395 49.8862C54.7975 49.4343 55.0303 48.8104 55.1631 47.7905C55.3182 46.5991 55.3203 45.0258 55.3203 42.7983C55.3203 40.5709 55.3182 38.9975 55.1631 37.8062C55.0113 36.6405 54.7292 35.9915 54.2783 35.5259C53.8318 35.0649 53.2162 34.7791 52.1025 34.6245C50.9565 34.4655 49.4398 34.4634 47.2803 34.4634H42.7598ZM22.832 36.3325C23.2117 35.9319 23.8442 35.9149 24.2451 36.2944C24.646 36.6741 24.6636 37.3065 24.2842 37.7075C23.112 38.9458 22.4131 40.5555 22.4131 42.3071C22.4132 44.0589 23.1119 45.6685 24.2842 46.9067C24.6638 47.3078 24.6461 47.9411 24.2451 48.3208C23.8441 48.6999 23.2116 48.6825 22.832 48.2817C21.3349 46.7004 20.4132 44.6082 20.4131 42.3071C20.4131 40.0062 21.335 37.9138 22.832 36.3325ZM65.792 36.2944C66.1929 35.9148 66.8253 35.9318 67.2051 36.3325C68.7022 37.9138 69.624 40.0061 69.624 42.3071C69.624 44.6083 68.7022 46.7004 67.2051 48.2817C66.8255 48.6824 66.193 48.7001 65.792 48.3208C65.391 47.9412 65.3734 47.3078 65.7529 46.9067C66.9253 45.6685 67.624 44.0589 67.624 42.3071C67.624 40.5554 66.9252 38.9458 65.7529 37.7075C65.3736 37.3065 65.3912 36.6741 65.792 36.2944ZM26.5371 38.9731C26.8929 38.5508 27.5239 38.4964 27.9463 38.8521C28.3687 39.2079 28.4222 39.8389 28.0664 40.2612C27.5837 40.8344 27.3048 41.5438 27.3047 42.3071C27.3047 43.082 27.5923 43.8016 28.0889 44.3794C28.4488 44.7982 28.4011 45.4295 27.9824 45.7896C27.5636 46.1492 26.9322 46.1017 26.5723 45.6831C25.7856 44.7678 25.3047 43.5927 25.3047 42.3071C25.3048 41.0411 25.7714 39.8823 26.5371 38.9731ZM62.0908 38.8521C62.5132 38.4963 63.1442 38.5508 63.5 38.9731C64.2659 39.8824 64.7324 41.0411 64.7324 42.3071C64.7324 43.5927 64.2516 44.7678 63.4648 45.6831C63.1049 46.1017 62.4734 46.1494 62.0547 45.7896C61.6361 45.4296 61.5884 44.7982 61.9482 44.3794C62.4449 43.8016 62.7324 43.082 62.7324 42.3071C62.7324 41.5437 62.4535 40.8344 61.9707 40.2612C61.6149 39.8389 61.6686 39.2079 62.0908 38.8521Z" fill="url(#paint1_linear_196_1137)"/>
</g>
<defs>
<linearGradient id="paint0_linear_196_1137" x1="44.5" y1="-7.91088e-09" x2="44.3044" y2="123.591" gradientUnits="userSpaceOnUse">
<stop stop-color="#A8A5FF"/>
<stop offset="0.798384" stop-color="#957EE3" stop-opacity="0"/>
<stop offset="1" stop-color="#8B69D4" stop-opacity="0"/>
</linearGradient>
<linearGradient id="paint1_linear_196_1137" x1="45.0186" y1="32.0786" x2="45.0186" y2="56.4662" gradientUnits="userSpaceOnUse">
<stop stop-color="white"/>
<stop offset="0.5" stop-color="#EECBFF"/>
<stop offset="1" stop-color="#BE96FF"/>
</linearGradient>
<clipPath id="clip0_196_1137">
<rect width="59.6129" height="24.1296" fill="white" transform="translate(15.0488 31.9355)"/>
</clipPath>
</defs>
</svg>
