<svg width="60" height="26" viewBox="0 0 60 26" fill="none" xmlns="http://www.w3.org/2000/svg">
<g clip-path="url(#clip0_225_2562)">
<path d="M32.2822 1.46338C34.3833 1.46338 36.0635 1.46151 37.3789 1.64404C38.7265 1.83113 39.8396 2.22954 40.7168 3.13525C41.5894 4.03648 41.9692 5.17162 42.1484 6.54736C42.3243 7.89794 42.3223 9.62557 42.3223 11.7983C42.3223 13.9711 42.3243 15.6987 42.1484 17.0493C41.9692 18.4254 41.5897 19.5611 40.7168 20.4624C40.0565 21.1441 39.2628 21.5372 38.3359 21.77L39.2686 23.6343C39.5154 24.1281 39.3149 24.729 38.8213 24.9761C38.3274 25.2227 37.7265 25.0225 37.4795 24.5288L36.2461 22.062C35.1363 22.1333 33.8223 22.1333 32.2822 22.1333H27.7617C26.221 22.1333 24.9069 22.1335 23.7969 22.062L22.5645 24.5288C22.3174 25.0225 21.7165 25.2228 21.2227 24.9761C20.7288 24.7291 20.5286 24.1282 20.7754 23.6343L21.707 21.77C20.7808 21.5369 19.9871 21.1429 19.3271 20.4614C18.4547 19.5602 18.0747 18.425 17.8955 17.0493C17.7197 15.6987 17.7217 13.9711 17.7217 11.7983C17.7217 9.62557 17.7197 7.89794 17.8955 6.54736C18.0747 5.1716 18.4546 4.03649 19.3271 3.13525C20.2044 2.22944 21.3174 1.83117 22.665 1.64404C23.9805 1.46147 25.6606 1.46338 27.7617 1.46338H32.2822ZM4.0957 2.74463C4.48324 2.35143 5.11636 2.34651 5.50977 2.73389C5.903 3.12136 5.90776 3.7545 5.52051 4.14795C3.65082 6.04649 2.52352 8.55974 2.52344 11.3071C2.5235 14.0546 3.6507 16.5677 5.52051 18.4663C5.90805 18.8598 5.90325 19.4938 5.50977 19.8813C5.11641 20.2684 4.48317 20.2635 4.0957 19.8706C1.88653 17.6275 0.523504 14.62 0.523438 11.3071C0.523516 7.99444 1.88668 4.98772 4.0957 2.74463ZM54.5312 2.73389C54.9247 2.34643 55.5578 2.3514 55.9453 2.74463C58.1544 4.98774 59.5175 7.99434 59.5176 11.3071C59.5175 14.62 58.1545 17.6275 55.9453 19.8706C55.5578 20.2635 54.9246 20.2686 54.5312 19.8813C54.1378 19.4939 54.1331 18.8598 54.5205 18.4663C56.3904 16.5677 57.5175 14.0547 57.5176 11.3071C57.5175 8.55965 56.3903 6.04651 54.5205 4.14795C54.1333 3.75455 54.1381 3.12138 54.5312 2.73389ZM27.7617 3.46338C25.602 3.46338 24.0855 3.4654 22.9395 3.62451C21.8257 3.77919 21.2102 4.06476 20.7637 4.52588C20.3128 4.99152 20.0307 5.64047 19.8789 6.80615C19.7238 7.99752 19.7217 9.57088 19.7217 11.7983C19.7217 14.0257 19.7238 15.5991 19.8789 16.7905C20.0117 17.8106 20.2444 18.4353 20.6025 18.8872L20.7637 19.0708L20.9404 19.2358C21.3725 19.6013 21.9654 19.8369 22.9395 19.9722C24.0855 20.1313 25.602 20.1333 27.7617 20.1333H32.2822C34.4418 20.1333 35.9584 20.1312 37.1045 19.9722C38.2183 19.8175 38.8337 19.5319 39.2803 19.0708L39.4414 18.8862C39.7994 18.4343 40.0323 17.8104 40.165 16.7905C40.3201 15.5991 40.3223 14.0258 40.3223 11.7983C40.3223 9.57089 40.3201 7.99751 40.165 6.80615C40.0132 5.6405 39.7312 4.99151 39.2803 4.52588C38.8338 4.06493 38.2182 3.77915 37.1045 3.62451C35.9584 3.46545 34.4418 3.46338 32.2822 3.46338H27.7617ZM7.83398 5.33252C8.2137 4.93186 8.84614 4.91493 9.24707 5.29443C9.64797 5.67405 9.66553 6.30647 9.28613 6.70752C8.11395 7.94575 7.4151 9.55546 7.41504 11.3071C7.4151 13.0589 8.11381 14.6685 9.28613 15.9067C9.66578 16.3078 9.6481 16.9411 9.24707 17.3208C8.84604 17.6999 8.21353 17.6825 7.83398 17.2817C6.33685 15.7004 5.4151 13.6082 5.41504 11.3071C5.4151 9.00615 6.33699 6.91382 7.83398 5.33252ZM50.7939 5.29443C51.1949 4.91484 51.8273 4.93183 52.207 5.33252C53.7041 6.91384 54.6259 9.00606 54.626 11.3071C54.6259 13.6083 53.7042 15.7004 52.207 17.2817C51.8274 17.6824 51.1949 17.7001 50.7939 17.3208C50.393 16.9412 50.3754 16.3078 50.7549 15.9067C51.9272 14.6685 52.6259 13.0589 52.626 11.3071C52.6259 9.55537 51.9272 7.94578 50.7549 6.70752C50.3755 6.30651 50.3932 5.67406 50.7939 5.29443ZM11.5391 7.97314C11.8949 7.55082 12.5259 7.49636 12.9482 7.85205C13.3706 8.20789 13.4242 8.83886 13.0684 9.26123C12.5856 9.8344 12.3067 10.5438 12.3066 11.3071C12.3067 12.082 12.5942 12.8016 13.0908 13.3794C13.4508 13.7982 13.4031 14.4295 12.9844 14.7896C12.5656 15.1492 11.9341 15.1017 11.5742 14.6831C10.7875 13.7678 10.3067 12.5927 10.3066 11.3071C10.3067 10.0411 10.7733 8.88234 11.5391 7.97314ZM47.0928 7.85205C47.5151 7.49626 48.1461 7.55079 48.502 7.97314C49.2678 8.88237 49.7343 10.0411 49.7344 11.3071C49.7343 12.5927 49.2535 13.7678 48.4668 14.6831C48.1068 15.1017 47.4754 15.1494 47.0566 14.7896C46.638 14.4296 46.5904 13.7982 46.9502 13.3794C47.4468 12.8016 47.7343 12.082 47.7344 11.3071C47.7343 10.5437 47.4555 9.83444 46.9727 9.26123C46.6169 8.8389 46.6705 8.2079 47.0928 7.85205Z" fill="url(#paint0_linear_225_2562)"/>
</g>
<defs>
<linearGradient id="paint0_linear_225_2562" x1="30.0205" y1="1.46338" x2="30.0205" y2="25.0817" gradientUnits="userSpaceOnUse">
<stop stop-color="white"/>
<stop offset="0.5" stop-color="#EECBFF"/>
<stop offset="1" stop-color="#BE96FF"/>
</linearGradient>
<clipPath id="clip0_225_2562">
<rect width="59.6129" height="24.1296" fill="white" transform="translate(0.0507812 0.935547)"/>
</clipPath>
</defs>
</svg>
