<svg width="24" height="24" viewBox="0 0 24 24" fill="none" xmlns="http://www.w3.org/2000/svg">
<path d="M13.5 4.0591C13.5 2.7231 11.884 2.0541 10.94 2.9991L6.44001 7.4991H4.50801C3.36701 7.4991 2.19001 8.1631 1.84801 9.4041C1.61598 10.2495 1.49893 11.1224 1.50001 11.9991C1.50001 12.8971 1.62101 13.7671 1.85001 14.5941C2.19101 15.8341 3.36801 16.4991 4.50901 16.4991H6.43901L10.939 20.9991C11.884 21.9441 13.5 21.2751 13.5 19.9391V4.0591ZM17.78 9.2191C17.7113 9.14541 17.6285 9.08631 17.5365 9.04532C17.4445 9.00432 17.3452 8.98228 17.2445 8.98051C17.1438 8.97873 17.0438 8.99725 16.9504 9.03498C16.857 9.0727 16.7722 9.12884 16.701 9.20006C16.6298 9.27128 16.5736 9.35611 16.5359 9.4495C16.4982 9.54289 16.4796 9.64292 16.4814 9.74362C16.4832 9.84432 16.5052 9.94364 16.5462 10.0356C16.5872 10.1276 16.6463 10.2104 16.72 10.2791L18.44 11.9991L16.72 13.7191C16.6463 13.7878 16.5872 13.8706 16.5462 13.9626C16.5052 14.0546 16.4832 14.1539 16.4814 14.2546C16.4796 14.3553 16.4982 14.4553 16.5359 14.5487C16.5736 14.6421 16.6298 14.7269 16.701 14.7981C16.7722 14.8694 16.857 14.9255 16.9504 14.9632C17.0438 15.0009 17.1438 15.0195 17.2445 15.0177C17.3452 15.0159 17.4445 14.9939 17.5365 14.9529C17.6285 14.9119 17.7113 14.8528 17.78 14.7791L19.5 13.0591L21.22 14.7791C21.2887 14.8528 21.3715 14.9119 21.4635 14.9529C21.5555 14.9939 21.6548 15.0159 21.7555 15.0177C21.8562 15.0195 21.9562 15.0009 22.0496 14.9632C22.143 14.9255 22.2278 14.8694 22.299 14.7981C22.3703 14.7269 22.4264 14.6421 22.4641 14.5487C22.5019 14.4553 22.5204 14.3553 22.5186 14.2546C22.5168 14.1539 22.4948 14.0546 22.4538 13.9626C22.4128 13.8706 22.3537 13.7878 22.28 13.7191L20.56 11.9991L22.28 10.2791C22.3537 10.2104 22.4128 10.1276 22.4538 10.0356C22.4948 9.94364 22.5168 9.84432 22.5186 9.74362C22.5204 9.64292 22.5019 9.54289 22.4641 9.4495C22.4264 9.35611 22.3703 9.27128 22.299 9.20006C22.2278 9.12884 22.143 9.0727 22.0496 9.03498C21.9562 8.99725 21.8562 8.97873 21.7555 8.98051C21.6548 8.98228 21.5555 9.00432 21.4635 9.04532C21.3715 9.08631 21.2887 9.14541 21.22 9.2191L19.5 10.9391L17.78 9.2191Z" fill="#F4F4F7" fill-opacity="0.8"/>
</svg>
