<svg width="24" height="24" viewBox="0 0 24 24" fill="none" xmlns="http://www.w3.org/2000/svg">
<path d="M20 4C21.1046 4 22 4.89543 22 6V18C22 19.1046 21.1046 20 20 20H4C2.89543 20 2 19.1046 2 18V6C2 4.89543 2.89543 4 4 4H20ZM8.5 15.5C7.94772 15.5 7.5 15.9477 7.5 16.5C7.5 17.0523 7.94772 17.5 8.5 17.5C9.05228 17.5 9.5 17.0523 9.5 16.5C9.5 15.9477 9.05228 15.5 8.5 15.5ZM12 15.5C11.4477 15.5 11 15.9477 11 16.5C11 17.0523 11.4477 17.5 12 17.5C12.5523 17.5 13 17.0523 13 16.5C13 15.9477 12.5523 15.5 12 15.5ZM15.5 15.5C14.9477 15.5 14.5 15.9477 14.5 16.5C14.5 17.0523 14.9477 17.5 15.5 17.5C16.0523 17.5 16.5 17.0523 16.5 16.5C16.5 15.9477 16.0523 15.5 15.5 15.5ZM5 12.5C4.44772 12.5 4 12.9477 4 13.5C4 14.0523 4.44772 14.5 5 14.5C5.55228 14.5 6 14.0523 6 13.5C6 12.9477 5.55228 12.5 5 12.5ZM8.5 12.5C7.94772 12.5 7.5 12.9477 7.5 13.5C7.5 14.0523 7.94772 14.5 8.5 14.5C9.05228 14.5 9.5 14.0523 9.5 13.5C9.5 12.9477 9.05228 12.5 8.5 12.5ZM12 12.5C11.4477 12.5 11 12.9477 11 13.5C11 14.0523 11.4477 14.5 12 14.5C12.5523 14.5 13 14.0523 13 13.5C13 12.9477 12.5523 12.5 12 12.5ZM15.5 12.5C14.9477 12.5 14.5 12.9477 14.5 13.5C14.5 14.0523 14.9477 14.5 15.5 14.5C16.0523 14.5 16.5 14.0523 16.5 13.5C16.5 12.9477 16.0523 12.5 15.5 12.5ZM19 12.5C18.4477 12.5 18 12.9477 18 13.5C18 14.0523 18.4477 14.5 19 14.5C19.5523 14.5 20 14.0523 20 13.5C20 12.9477 19.5523 12.5 19 12.5ZM5 9.5C4.44772 9.5 4 9.94772 4 10.5C4 11.0523 4.44772 11.5 5 11.5C5.55228 11.5 6 11.0523 6 10.5C6 9.94772 5.55228 9.5 5 9.5ZM8.5 9.5C7.94772 9.5 7.5 9.94772 7.5 10.5C7.5 11.0523 7.94772 11.5 8.5 11.5C9.05228 11.5 9.5 11.0523 9.5 10.5C9.5 9.94772 9.05228 9.5 8.5 9.5ZM12 9.5C11.4477 9.5 11 9.94772 11 10.5C11 11.0523 11.4477 11.5 12 11.5C12.5523 11.5 13 11.0523 13 10.5C13 9.94772 12.5523 9.5 12 9.5ZM15.5 9.5C14.9477 9.5 14.5 9.94772 14.5 10.5C14.5 11.0523 14.9477 11.5 15.5 11.5C16.0523 11.5 16.5 11.0523 16.5 10.5C16.5 9.94772 16.0523 9.5 15.5 9.5ZM19 9.5C18.4477 9.5 18 9.94772 18 10.5C18 11.0523 18.4477 11.5 19 11.5C19.5523 11.5 20 11.0523 20 10.5C20 9.94772 19.5523 9.5 19 9.5ZM5 6.5C4.44772 6.5 4 6.94772 4 7.5C4 8.05228 4.44772 8.5 5 8.5C5.55228 8.5 6 8.05228 6 7.5C6 6.94772 5.55228 6.5 5 6.5ZM8.5 6.5C7.94772 6.5 7.5 6.94772 7.5 7.5C7.5 8.05228 7.94772 8.5 8.5 8.5C9.05228 8.5 9.5 8.05228 9.5 7.5C9.5 6.94772 9.05228 6.5 8.5 6.5ZM12 6.5C11.4477 6.5 11 6.94772 11 7.5C11 8.05228 11.4477 8.5 12 8.5C12.5523 8.5 13 8.05228 13 7.5C13 6.94772 12.5523 6.5 12 6.5ZM15.5 6.5C14.9477 6.5 14.5 6.94772 14.5 7.5C14.5 8.05228 14.9477 8.5 15.5 8.5C16.0523 8.5 16.5 8.05228 16.5 7.5C16.5 6.94772 16.0523 6.5 15.5 6.5ZM19 6.5C18.4477 6.5 18 6.94772 18 7.5C18 8.05228 18.4477 8.5 19 8.5C19.5523 8.5 20 8.05228 20 7.5C20 6.94772 19.5523 6.5 19 6.5Z" fill="#F4F4F7" fill-opacity="0.8"/>
</svg>
