<svg width="24" height="24" viewBox="0 0 24 24" fill="none" xmlns="http://www.w3.org/2000/svg">
<path d="M18.3438 5.25C18.758 5.25 19.0938 5.58579 19.0938 6V8.31641H21C21.5523 8.31641 22 8.76412 22 9.31641C22 9.86869 21.5523 10.3164 21 10.3164H19.0938V12.3154C19.0938 12.7296 18.758 13.0654 18.3438 13.0654H10.9756C9.22429 13.0654 7.74191 11.9136 7.24512 10.3262C5.43113 10.4567 4 11.9691 4 13.8164C4 15.7494 5.567 17.3164 7.5 17.3164H19C19.5523 17.3164 20 17.7641 20 18.3164C20 18.8687 19.5523 19.3164 19 19.3164H7.5C4.46243 19.3164 2 16.854 2 13.8164C2 10.8943 4.27882 8.5046 7.15625 8.32715C7.53729 6.56807 9.10252 5.25 10.9756 5.25H18.3438Z" fill="#F4F4F7" fill-opacity="0.8"/>
</svg>
