<svg width="73" height="72" viewBox="0 0 73 72" fill="none" xmlns="http://www.w3.org/2000/svg">
<circle cx="36.5" cy="36" r="36" fill="url(#paint0_radial_225_2755)"/>
<path d="M40.168 20.7495C42.8758 20.7495 45.0109 20.7478 46.6768 20.979C48.3747 21.2147 49.7332 21.7098 50.7988 22.8101L50.9912 23.019C51.9187 24.0811 52.3484 25.4043 52.5605 27.0337C52.7834 28.746 52.7812 30.9428 52.7812 33.7417C52.7813 36.5406 52.7835 38.7374 52.5605 40.4497C52.3343 42.1876 51.8602 43.5774 50.7988 44.6733C49.9186 45.5822 48.8384 46.0771 47.5322 46.355L48.8916 49.0728C49.1384 49.5665 48.9379 50.1674 48.4443 50.4146C47.9504 50.6615 47.3496 50.4612 47.1025 49.9673L45.4336 46.6294C43.9841 46.7332 42.2444 46.7339 40.168 46.7339H34.3613C32.2884 46.7339 30.5515 46.7336 29.1035 46.6304L27.4355 49.9673C27.1886 50.4611 26.5877 50.6614 26.0938 50.4146C25.5998 50.1676 25.3996 49.5667 25.6465 49.0728L27.0039 46.356C25.6948 46.0783 24.6122 45.5838 23.7305 44.6733C22.6692 43.5774 22.195 42.1876 21.9688 40.4497C21.7458 38.7374 21.748 36.5406 21.748 33.7417C21.748 30.9429 21.7459 28.746 21.9688 27.0337C22.195 25.2958 22.6692 23.906 23.7305 22.8101C24.7961 21.7097 26.1545 21.2148 27.8525 20.979C29.5184 20.7477 31.6534 20.7495 34.3613 20.7495H40.168ZM34.3613 22.7495C31.595 22.7495 29.6234 22.7517 28.127 22.9595C26.663 23.1628 25.8019 23.546 25.167 24.2017C24.5278 24.8619 24.151 25.7641 23.9521 27.2915C23.7499 28.8447 23.748 30.8878 23.748 33.7417C23.748 36.5956 23.7499 38.6387 23.9521 40.1919C24.151 41.7194 24.5278 42.6216 25.167 43.2817C25.8019 43.9374 26.663 44.3206 28.127 44.5239C29.6234 44.7317 31.595 44.7339 34.3613 44.7339H40.168C42.9343 44.7339 44.9058 44.7317 46.4023 44.5239C47.8666 44.3206 48.7274 43.9374 49.3623 43.2817C50.0016 42.6216 50.3782 41.7194 50.5771 40.1919C50.7794 38.6387 50.7812 36.5956 50.7812 33.7417C50.7812 30.8878 50.7794 28.8447 50.5771 27.2915C50.3783 25.7639 50.0017 24.8619 49.3623 24.2017C48.7274 23.546 47.8666 23.1628 46.4023 22.9595C44.9058 22.7517 42.9343 22.7495 40.168 22.7495H34.3613Z" fill="white"/>
<defs>
<radialGradient id="paint0_radial_225_2755" cx="0" cy="0" r="1" gradientUnits="userSpaceOnUse" gradientTransform="translate(0.499998 72) rotate(-45) scale(101.823 50.9117)">
<stop stop-color="#C34CFF"/>
<stop offset="1" stop-color="#6B4CFF"/>
</radialGradient>
</defs>
</svg>
