<svg width="24" height="24" viewBox="0 0 24 24" fill="none" xmlns="http://www.w3.org/2000/svg">
<path d="M13.5 4.0591C13.5 2.7231 11.884 2.0541 10.94 2.9991L6.44001 7.4991H4.50801C3.36701 7.4991 2.19001 8.1631 1.84801 9.4041C1.61598 10.2495 1.49893 11.1224 1.50001 11.9991C1.50001 12.8971 1.62101 13.7671 1.85001 14.5941C2.19101 15.8341 3.36801 16.4991 4.50901 16.4991H6.43901L10.939 20.9991C11.884 21.9441 13.5 21.2751 13.5 19.9391V4.0591ZM18.584 5.1051C18.7246 4.96465 18.9153 4.88576 19.114 4.88576C19.3128 4.88576 19.5034 4.96465 19.644 5.1051C23.452 8.9121 23.452 15.0851 19.644 18.8931C19.5018 19.0256 19.3138 19.0977 19.1195 19.0943C18.9252 19.0908 18.7398 19.0121 18.6024 18.8747C18.465 18.7373 18.3863 18.5519 18.3828 18.3576C18.3794 18.1633 18.4515 17.9753 18.584 17.8331C19.3502 17.067 19.958 16.1575 20.3727 15.1565C20.7873 14.1555 21.0007 13.0826 21.0007 11.9991C21.0007 10.9156 20.7873 9.84272 20.3727 8.84172C19.958 7.84071 19.3502 6.93119 18.584 6.1651C18.4436 6.02447 18.3647 5.83385 18.3647 5.6351C18.3647 5.43635 18.4436 5.24572 18.584 5.1051Z" fill="#F4F4F7" fill-opacity="0.8"/>
<path d="M15.9332 7.75695C16.0028 7.68725 16.0855 7.63197 16.1766 7.59425C16.2676 7.55652 16.3652 7.53711 16.4637 7.53711C16.5622 7.53711 16.6598 7.55652 16.7508 7.59425C16.8418 7.63197 16.9245 7.68725 16.9942 7.75695C17.5514 8.31411 17.9935 8.97559 18.2951 9.70361C18.5967 10.4316 18.7519 11.2119 18.7519 11.9999C18.7519 12.788 18.5967 13.5683 18.2951 14.2963C17.9935 15.0243 17.5514 15.6858 16.9942 16.2429C16.8527 16.3795 16.6632 16.455 16.4665 16.4532C16.2699 16.4514 16.0818 16.3724 15.9428 16.2333C15.8038 16.0942 15.725 15.9061 15.7234 15.7094C15.7218 15.5128 15.7975 15.3233 15.9342 15.1819C16.3521 14.7641 16.6835 14.268 16.9097 13.722C17.1358 13.1761 17.2522 12.5909 17.2522 11.9999C17.2522 11.409 17.1358 10.8238 16.9097 10.2779C16.6835 9.73189 16.3521 9.23581 15.9342 8.81795C15.7937 8.67732 15.7148 8.4867 15.7148 8.28795C15.7148 8.0892 15.7937 7.89857 15.9342 7.75795L15.9332 7.75695Z" fill="#F4F4F7" fill-opacity="0.8"/>
</svg>
