<svg width="24" height="24" viewBox="0 0 24 24" fill="none" xmlns="http://www.w3.org/2000/svg">
<path fill-rule="evenodd" clip-rule="evenodd" d="M12 2C6.47715 2 2 6.47715 2 12C2 17.5228 6.47715 22 12 22C17.5228 22 22 17.5228 22 12C22 6.47715 17.5228 2 12 2ZM15.3701 8.6299C15.7251 8.98493 15.7251 9.56053 15.3701 9.91555L13.2856 12L15.3701 14.0844C15.7251 14.4395 15.7251 15.0151 15.3701 15.3701C15.0151 15.7251 14.4395 15.7251 14.0844 15.3701L12 13.2856L9.91555 15.3701C9.56053 15.7251 8.98493 15.7251 8.6299 15.3701C8.27488 15.0151 8.27488 14.4395 8.6299 14.0844L10.7144 12L8.6299 9.91555C8.27488 9.56053 8.27488 8.98493 8.6299 8.6299C8.98493 8.27488 9.56053 8.27488 9.91555 8.6299L12 10.7144L14.0844 8.6299C14.4395 8.27488 15.0151 8.27488 15.3701 8.6299Z" fill="white"/>
</svg>
