<svg width="24" height="24" viewBox="0 0 24 24" fill="none" xmlns="http://www.w3.org/2000/svg">
<path d="M15 6.75C14.8011 6.75 14.6103 6.82902 14.4697 6.96967C14.329 7.11032 14.25 7.30109 14.25 7.5V18C14.25 18.1989 14.329 18.3897 14.4697 18.5303C14.6103 18.671 14.8011 18.75 15 18.75H15.75C15.9489 18.75 16.1397 18.671 16.2803 18.5303C16.421 18.3897 16.5 18.1989 16.5 18V7.5C16.5 7.30109 16.421 7.11032 16.2803 6.96967C16.1397 6.82902 15.9489 6.75 15.75 6.75H15ZM20.25 6.75C20.0511 6.75 19.8603 6.82902 19.7197 6.96967C19.579 7.11032 19.5 7.30109 19.5 7.5V18C19.5 18.414 19.836 18.75 20.25 18.75H21C21.1989 18.75 21.3897 18.671 21.5303 18.5303C21.671 18.3897 21.75 18.1989 21.75 18V7.5C21.75 7.30109 21.671 7.11032 21.5303 6.96967C21.3897 6.82902 21.1989 6.75 21 6.75H20.25ZM5.055 7.06C3.805 6.347 2.25 7.25 2.25 8.69V16.812C2.25 18.252 3.805 19.155 5.055 18.44L12.163 14.379C13.423 13.659 13.423 11.843 12.163 11.123L5.055 7.06Z" fill="#F4F4F7" fill-opacity="0.8"/>
</svg>
