<svg width="40" height="40" viewBox="0 0 40 40" fill="none" xmlns="http://www.w3.org/2000/svg">
<path d="M23.3369 4C26.1891 4 28.4324 3.99739 30.1816 4.24023C31.9628 4.48755 33.3789 5.0067 34.4893 6.15332C35.5953 7.29546 36.0916 8.74457 36.3291 10.5684C36.5632 12.3667 36.5615 14.6752 36.5615 17.623C36.5615 20.5709 36.5632 22.8794 36.3291 24.6777C36.0916 26.5016 35.5954 27.9516 34.4893 29.0938C33.5567 30.0567 32.4079 30.575 31.0088 30.8633L32.4697 33.7852C32.7167 34.2791 32.5164 34.88 32.0225 35.127C31.5285 35.3739 30.9277 35.1736 30.6807 34.6797L28.9072 31.1338C27.3782 31.2449 25.5391 31.2461 23.3369 31.2461H17.2246C15.0243 31.2461 13.1865 31.2455 11.6582 31.1348L9.88672 34.6797C9.63972 35.1736 9.03889 35.3739 8.54492 35.127C8.05095 34.88 7.85069 34.2791 8.09766 33.7852L9.55762 30.8643C8.1563 30.5762 7.00596 30.0578 6.07227 29.0938C4.96612 27.9516 4.46989 26.5016 4.23242 24.6777C3.9983 22.8794 4 20.5708 4 17.623C4 14.6752 3.99828 12.3667 4.23242 10.5684C4.46991 8.74457 4.9662 7.29546 6.07227 6.15332C7.18267 5.00672 8.5987 4.48755 10.3799 4.24023C12.1291 3.99739 14.3724 4 17.2246 4H23.3369ZM17.2246 6C14.3141 6 12.235 6.00236 10.6553 6.22168C9.10788 6.43651 8.18856 6.84216 7.50879 7.54395C6.82465 8.2504 6.42591 9.21357 6.21582 10.8271C6.00244 12.4662 6 14.6206 6 17.623C6 20.6258 6.0024 22.7808 6.21582 24.4199C6.42592 26.0334 6.82471 26.9958 7.50879 27.7021C8.18858 28.4041 9.10772 28.8105 10.6553 29.0254C12.235 29.2447 14.3141 29.2461 17.2246 29.2461H23.3369C26.2473 29.2461 28.3265 29.2447 29.9062 29.0254C31.4538 28.8105 32.373 28.4041 33.0527 27.7021C33.7368 26.9958 34.1356 26.0334 34.3457 24.4199C34.5591 22.7808 34.5615 20.6258 34.5615 17.623C34.5615 14.6206 34.5591 12.4662 34.3457 10.8271C34.1356 9.21357 33.7369 8.2504 33.0527 7.54395C32.373 6.84218 31.4537 6.43651 29.9062 6.22168C28.3265 6.00237 26.2474 6 23.3369 6H17.2246Z" fill="white"/>
<path d="M21.6819 25.1623C21.5574 22.3099 20.4061 19.494 18.2281 17.316C16.0501 15.138 13.2342 13.9868 10.3818 13.8623M10.3799 17.5644C12.2859 17.6851 14.1575 18.4737 15.614 19.9302C17.0706 21.3868 17.8592 23.2584 17.9799 25.1643M14.2668 25.1447C14.1516 24.1942 13.7293 23.2739 12.9998 22.5444C12.2593 21.8038 11.3221 21.3798 10.3563 21.2723" stroke="white" stroke-width="2" stroke-linecap="round" stroke-linejoin="round"/>
</svg>
