<svg width="24" height="24" viewBox="0 0 24 24" fill="none" xmlns="http://www.w3.org/2000/svg">
<path fill-rule="evenodd" clip-rule="evenodd" d="M12 1C5.92393 1 1 5.927 1 11.9993C1 18.0744 5.92531 23 12 23C18.0747 23 23 18.073 23 11.9993C23 5.927 18.0747 1 12 1ZM7.875 14.5115C7.54087 14.7708 7.00033 14.7708 6.66491 14.5115L3.99963 12.4307C3.66679 12.1688 3.66679 11.7451 3.99963 11.4845L6.66491 9.40238C7.00033 9.14054 7.54087 9.14054 7.875 9.40238V14.5115ZM9.44479 6.61953L11.5267 3.95662C11.7891 3.62246 12.212 3.62246 12.4719 3.95662L14.5513 6.61953C14.8162 6.95497 14.8162 7.49814 14.5513 7.831H9.44603C9.18486 7.49814 9.18486 6.95497 9.44479 6.61953ZM14.5529 17.2649L12.4735 19.931C12.2082 20.2647 11.7858 20.2647 11.5256 19.931L9.44613 17.2649C9.18462 16.9313 9.18462 16.3912 9.44613 16.0563H14.5529C14.8157 16.3899 14.8157 16.9313 14.5529 17.2649ZM17.3359 14.5099C17.0027 14.7714 16.4608 14.7714 16.125 14.5099V9.40207C16.4608 9.14064 17.0027 9.14064 17.3359 9.40207L19.9982 11.4833C20.3339 11.746 20.3339 12.1698 19.9982 12.43L17.3359 14.5099Z" fill="#F4F4F7" fill-opacity="0.8"/>
</svg>
