<svg width="24" height="24" viewBox="0 0 24 24" fill="none" xmlns="http://www.w3.org/2000/svg">
<path d="M16.5898 4C17.0085 4 17.3474 4.33925 17.3477 4.75781C17.3477 4.95882 17.2681 5.15177 17.126 5.29395L14.957 7.46387C14.8939 7.52705 14.8584 7.61285 14.8584 7.70215V9.8916C14.8585 9.98082 14.8939 10.0668 14.957 10.1299L17.7783 12.9502C18.0742 13.2462 18.0741 13.7264 17.7783 14.0225C17.6362 14.1646 17.4431 14.245 17.2422 14.2451L12.5049 14.2441L12.5059 18.6562C12.5059 18.9075 12.3222 19.1161 12.082 19.1553L12 19.1621C11.7487 19.1621 11.5402 18.9785 11.501 18.7383L11.4941 18.6562V14.2441L6.75781 14.2451C6.33925 14.2449 6 13.9049 6 13.4863C6.00006 13.2854 6.07959 13.0923 6.22168 12.9502L9.04297 10.1299C9.10606 10.0668 9.14149 9.98082 9.1416 9.8916V7.70703C9.14158 7.61641 9.10481 7.5292 9.04004 7.46582L6.82715 5.2998C6.52787 5.00693 6.52256 4.52683 6.81543 4.22754C6.95804 4.08196 7.15362 4 7.35742 4H16.5898ZM9.74609 6.74414C10.0052 6.99772 10.1514 7.34544 10.1514 7.70801V9.8916C10.1514 10.249 10.0095 10.592 9.75684 10.8447L7.36719 13.2344H16.6309L14.2412 10.8447C13.9884 10.5919 13.8457 10.2491 13.8457 9.8916V7.70215C13.8458 7.34478 13.9885 7.00173 14.2412 6.74902L15.9785 5.01172H7.97559L9.74609 6.74414Z" fill="white"/>
</svg>
