<svg width="24" height="24" viewBox="0 0 24 24" fill="none" xmlns="http://www.w3.org/2000/svg">
<path d="M12 1C18.0751 1 23 5.92487 23 12C23 18.0751 18.0751 23 12 23C5.92487 23 1 18.0751 1 12C1 5.92487 5.92487 1 12 1ZM12 11C11.4477 11 11 11.4477 11 12V17C11 17.5523 11.4477 18 12 18C12.5523 18 13 17.5523 13 17V12C13 11.4477 12.5523 11 12 11ZM12 6C11.1716 6 10.5 6.67157 10.5 7.5C10.5 8.29259 11.1149 8.93947 11.8936 8.99414C11.9285 8.99784 11.964 9 12 9H12.0098C12.047 9 12.0839 8.99713 12.1201 8.99316C12.8923 8.9319 13.5 8.28794 13.5 7.5C13.5 6.67157 12.8284 6 12 6Z" fill="#F4F4F7" fill-opacity="0.8"/>
</svg>
