<svg width="24" height="24" viewBox="0 0 24 24" fill="none" xmlns="http://www.w3.org/2000/svg">
<path d="M15.2544 15.2544L19.5 19.5M15.2544 15.2544C15.8394 14.6694 16.3038 13.9753 16.6204 13.2109C16.937 12.4466 17.1 11.6273 17.1 10.8C17.1 9.12914 16.4363 7.52671 15.2548 6.34523C14.0733 5.16375 12.4709 4.5 10.8 4.5C9.12914 4.5 7.52671 5.16375 6.34523 6.34523C5.16375 7.52671 4.5 9.12914 4.5 10.8C4.5 11.6273 4.66295 12.4466 4.97956 13.2109C5.29616 13.9753 5.76022 14.6698 6.34523 15.2548C6.93024 15.8398 7.62474 16.3038 8.38909 16.6204C9.15345 16.937 9.97267 17.1 10.8 17.1C11.6273 17.1 12.4466 16.937 13.2109 16.6204C13.9753 16.3038 14.6694 15.8394 15.2544 15.2544Z" stroke="white" stroke-width="2" stroke-linecap="round" stroke-linejoin="round"/>
</svg>
