<svg width="24" height="24" viewBox="0 0 24 24" fill="none" xmlns="http://www.w3.org/2000/svg">
<path d="M11.6104 2.11792C11.8143 2.11571 12.0111 2.19539 12.1553 2.3396L18.6836 8.86792C18.9796 9.16397 18.9795 9.64407 18.6836 9.94019C18.5414 10.0824 18.3486 10.1628 18.1475 10.1628H15.0801C14.9907 10.1628 14.905 10.1983 14.8418 10.2615L13.2939 11.8093C13.2308 11.8725 13.1944 11.9583 13.1943 12.0476V16.0369C13.1943 16.4556 12.8553 16.7957 12.4365 16.7957C12.2354 16.7956 12.0426 16.7152 11.9004 16.573L8.55078 13.2234L5.43164 16.3435C5.25398 16.5212 4.97683 16.5393 4.7793 16.3972L4.7168 16.3435C4.53951 16.166 4.52142 15.8895 4.66309 15.6921L4.7168 15.6287L7.83594 12.5085L4.4873 9.15991C4.19149 8.86379 4.1913 8.38365 4.4873 8.08765C4.62945 7.94558 4.82247 7.866 5.02344 7.86597H9.0127C9.10198 7.86597 9.1878 7.83041 9.25098 7.76733L10.7959 6.22339C10.8599 6.15935 10.8955 6.07176 10.8945 5.9812L10.8604 2.88452C10.8558 2.46592 11.1918 2.12266 11.6104 2.11792Z" fill="white"/>
</svg>
