<svg width="24" height="24" viewBox="0 0 24 24" fill="none" xmlns="http://www.w3.org/2000/svg">
<path d="M18.604 6.24667V11.0367C18.604 11.89 18.0573 12.62 17.294 12.8933V14.1467C17.294 15.6633 16.704 17.0833 15.6307 18.1533C14.8107 18.9733 14.3607 20.06 14.3607 21.2167V21.3333C14.3607 21.7 14.0607 22 13.694 22C13.3273 22 13.0273 21.7 13.0273 21.3333V21.2167C13.0273 19.7033 13.6173 18.28 14.6907 17.21C15.5107 16.3933 15.9607 15.3067 15.9607 14.1467V12.8933C15.1973 12.62 14.6507 11.89 14.6507 11.0367V6.24667C14.6507 5.87667 14.9473 5.58 15.3173 5.58H15.9607V2.66667C15.9607 2.3 16.2607 2 16.6273 2C16.994 2 17.294 2.3 17.294 2.66667V5.58H17.9373C18.3073 5.58 18.604 5.87667 18.604 6.24667Z" fill="white"/>
<path d="M7.91333 17.21C8.98667 18.28 9.57667 19.7033 9.57667 21.2167V21.3333C9.57667 21.7 9.28 22 8.91 22C8.54 22 8.24333 21.7 8.24333 21.3333V21.2167C8.24333 20.06 7.79333 18.9733 6.97333 18.1533C5.9 17.0833 5.31 15.6633 5.31 14.1467V12.8933C4.54667 12.62 4 11.89 4 11.0367V6.24667C4 5.87667 4.29667 5.58 4.66667 5.58H5.31V2.66667C5.31 2.3 5.60667 2 5.97667 2C6.34667 2 6.64333 2.3 6.64333 2.66667V5.58H7.28667C7.65667 5.58 7.95333 5.87667 7.95333 6.24667V11.0367C7.95333 11.89 7.40667 12.62 6.64333 12.8933V14.1467C6.64333 15.3067 7.09333 16.3933 7.91333 17.21Z" fill="white"/>
<path d="M13.2776 11.0367C13.2776 11.89 12.7309 12.62 11.9676 12.8933V21.3333C11.9676 21.7 11.6676 22 11.3009 22C10.9342 22 10.6342 21.7 10.6342 21.3333V12.8933C9.87089 12.62 9.32422 11.89 9.32422 11.0367V6.24667C9.32422 5.87667 9.62089 5.58 9.99089 5.58H10.6342V2.66667C10.6342 2.3 10.9342 2 11.3009 2C11.6676 2 11.9676 2.3 11.9676 2.66667V5.58H12.6109C12.9809 5.58 13.2776 5.87667 13.2776 6.24667V11.0367Z" fill="white"/>
</svg>
