<svg width="25" height="24" viewBox="0 0 25 24" fill="none" xmlns="http://www.w3.org/2000/svg">
<path d="M8.65 3H4.85C4.28995 3 4.00992 3 3.79601 3.10899C3.60785 3.20487 3.45487 3.35785 3.35899 3.54601C3.25 3.75992 3.25 4.03995 3.25 4.6V8.4C3.25 8.96005 3.25 9.24008 3.35899 9.45399C3.45487 9.64215 3.60785 9.79513 3.79601 9.89101C4.00992 10 4.28995 10 4.85 10H8.65C9.21005 10 9.49008 10 9.70399 9.89101C9.89215 9.79513 10.0451 9.64215 10.141 9.45399C10.25 9.24008 10.25 8.96005 10.25 8.4V4.6C10.25 4.03995 10.25 3.75992 10.141 3.54601C10.0451 3.35785 9.89215 3.20487 9.70399 3.10899C9.49008 3 9.21005 3 8.65 3Z" stroke="white" stroke-width="2" stroke-linecap="round" stroke-linejoin="round"/>
<path d="M19.65 3H15.85C15.2899 3 15.0099 3 14.796 3.10899C14.6078 3.20487 14.4549 3.35785 14.359 3.54601C14.25 3.75992 14.25 4.03995 14.25 4.6V8.4C14.25 8.96005 14.25 9.24008 14.359 9.45399C14.4549 9.64215 14.6078 9.79513 14.796 9.89101C15.0099 10 15.2899 10 15.85 10H19.65C20.2101 10 20.4901 10 20.704 9.89101C20.8922 9.79513 21.0451 9.64215 21.141 9.45399C21.25 9.24008 21.25 8.96005 21.25 8.4V4.6C21.25 4.03995 21.25 3.75992 21.141 3.54601C21.0451 3.35785 20.8922 3.20487 20.704 3.10899C20.4901 3 20.2101 3 19.65 3Z" stroke="white" stroke-width="2" stroke-linecap="round" stroke-linejoin="round"/>
<path d="M19.65 14H15.85C15.2899 14 15.0099 14 14.796 14.109C14.6078 14.2049 14.4549 14.3578 14.359 14.546C14.25 14.7599 14.25 15.0399 14.25 15.6V19.4C14.25 19.9601 14.25 20.2401 14.359 20.454C14.4549 20.6422 14.6078 20.7951 14.796 20.891C15.0099 21 15.2899 21 15.85 21H19.65C20.2101 21 20.4901 21 20.704 20.891C20.8922 20.7951 21.0451 20.6422 21.141 20.454C21.25 20.2401 21.25 19.9601 21.25 19.4V15.6C21.25 15.0399 21.25 14.7599 21.141 14.546C21.0451 14.3578 20.8922 14.2049 20.704 14.109C20.4901 14 20.2101 14 19.65 14Z" stroke="white" stroke-width="2" stroke-linecap="round" stroke-linejoin="round"/>
<path d="M8.65 14H4.85C4.28995 14 4.00992 14 3.79601 14.109C3.60785 14.2049 3.45487 14.3578 3.35899 14.546C3.25 14.7599 3.25 15.0399 3.25 15.6V19.4C3.25 19.9601 3.25 20.2401 3.35899 20.454C3.45487 20.6422 3.60785 20.7951 3.79601 20.891C4.00992 21 4.28995 21 4.85 21H8.65C9.21005 21 9.49008 21 9.70399 20.891C9.89215 20.7951 10.0451 20.6422 10.141 20.454C10.25 20.2401 10.25 19.9601 10.25 19.4V15.6C10.25 15.0399 10.25 14.7599 10.141 14.546C10.0451 14.3578 9.89215 14.2049 9.70399 14.109C9.49008 14 9.21005 14 8.65 14Z" stroke="white" stroke-width="2" stroke-linecap="round" stroke-linejoin="round"/>
</svg>
