<svg width="24" height="24" viewBox="0 0 24 24" fill="none" xmlns="http://www.w3.org/2000/svg">
<path d="M7.6 15.3H9.8M7.6 18.6H9.8M14.2 15.3H16.4M14.2 18.6H16.4M12.55 1C16.1798 1 17.9947 1 19.1224 2.12764C20.25 3.25528 20.25 5.07019 20.25 8.7V15.3C20.25 18.9298 20.25 20.7447 19.1224 21.8724C17.9947 23 16.1798 23 12.55 23H11.45C7.82019 23 6.00527 23 4.87764 21.8724C3.75 20.7447 3.75 18.9298 3.75 15.3V8.7C3.75 5.07019 3.75 3.25528 4.87764 2.12764C6.00527 1 7.82019 1 11.45 1H12.55ZM15.3 7.6C15.3 9.42254 13.8226 10.9 12 10.9C10.1774 10.9 8.7 9.42254 8.7 7.6C8.7 5.77747 10.1774 4.3 12 4.3C13.8226 4.3 15.3 5.77747 15.3 7.6Z" stroke="url(#paint0_linear_1558_9652)" stroke-width="2" stroke-linecap="round" stroke-linejoin="round"/>
<defs>
<linearGradient id="paint0_linear_1558_9652" x1="12" y1="1" x2="12" y2="23" gradientUnits="userSpaceOnUse">
<stop stop-color="white"/>
<stop offset="0.5" stop-color="#EECBFF"/>
<stop offset="1" stop-color="#BE96FF"/>
</linearGradient>
</defs>
</svg>
