<svg width="32" height="24" viewBox="0 0 32 24" fill="none" xmlns="http://www.w3.org/2000/svg">
<path d="M0.960938 17.2856L4.71094 6.7168H6.27832V8.67969H5.71436L2.93848 17.2856H0.960938ZM2.85059 14.5537L3.34131 13.0962H8.18994L8.68066 14.5537H2.85059ZM8.61475 17.2856L5.83887 8.67969V6.7168H6.83496L10.5923 17.2856H8.61475Z" fill="#F4F4F7" fill-opacity="0.8"/>
<path d="M13.1235 17.2856V15.8208H16.2656C16.9638 15.8208 17.4936 15.6792 17.855 15.396C18.2163 15.1079 18.397 14.6953 18.397 14.1582V14.1436C18.397 13.7871 18.3139 13.4868 18.1479 13.2427C17.9819 12.9985 17.7329 12.8154 17.4009 12.6934C17.0737 12.5713 16.6684 12.5103 16.185 12.5103H13.1235V11.1699H15.8921C16.561 11.1699 17.0688 11.043 17.4155 10.7891C17.7671 10.5352 17.9429 10.1689 17.9429 9.69043V9.67578C17.9429 9.20703 17.7842 8.84082 17.4668 8.57715C17.1494 8.31348 16.7051 8.18164 16.1338 8.18164H13.1235V6.7168H16.5879C17.2617 6.7168 17.8379 6.82422 18.3164 7.03906C18.7949 7.24902 19.1636 7.55176 19.4223 7.94727C19.6811 8.33789 19.8105 8.8042 19.8105 9.34619V9.36084C19.8105 9.73193 19.7251 10.0786 19.5542 10.4009C19.3882 10.7231 19.1636 10.9917 18.8804 11.2065C18.602 11.4214 18.2846 11.5581 17.9282 11.6167V11.7485C18.4018 11.7925 18.8169 11.9292 19.1733 12.1587C19.5346 12.3833 19.8154 12.6787 20.0156 13.0449C20.2207 13.4111 20.3232 13.8213 20.3232 14.2754V14.29C20.3232 14.9053 20.1767 15.4375 19.8838 15.8867C19.5957 16.3359 19.1806 16.6826 18.6387 16.9268C18.0967 17.166 17.4497 17.2856 16.6977 17.2856H13.1235ZM12.1787 17.2856V6.7168H14.0683V17.2856H12.1787Z" fill="#F4F4F7" fill-opacity="0.8"/>
<path d="M26.5678 17.5493C25.5669 17.5493 24.7026 17.3247 23.9751 16.8755C23.2524 16.4263 22.6933 15.7891 22.2978 14.9639C21.9072 14.1338 21.7119 13.1499 21.7119 12.0122V11.9976C21.7119 10.855 21.9072 9.87109 22.2978 9.0459C22.6933 8.21582 23.2524 7.57617 23.9751 7.12695C24.6977 6.67773 25.5595 6.45312 26.5605 6.45312C27.3613 6.45312 28.0839 6.61182 28.7285 6.9292C29.373 7.2417 29.8979 7.67627 30.3032 8.23291C30.7085 8.78467 30.9526 9.41943 31.0356 10.1372L31.0283 10.1958H29.1826L29.1753 10.1592C29.0874 9.74414 28.9213 9.38281 28.6772 9.0752C28.4331 8.7627 28.1303 8.521 27.769 8.3501C27.4077 8.17432 27.0048 8.08643 26.5605 8.08643C25.9648 8.08643 25.4472 8.24512 25.0078 8.5625C24.5683 8.87988 24.229 9.33154 23.9897 9.91748C23.7553 10.4985 23.6381 11.1895 23.6381 11.9902V12.0049C23.6381 12.8057 23.7553 13.499 23.9897 14.085C24.229 14.6709 24.5683 15.1226 25.0078 15.4399C25.4472 15.7573 25.9672 15.916 26.5678 15.916C27.0171 15.916 27.4199 15.8379 27.7763 15.6816C28.1377 15.5254 28.438 15.3057 28.6772 15.0225C28.9213 14.7344 29.0874 14.3975 29.1753 14.0117L29.1899 13.9678H31.0356V14.0264C30.9428 14.7295 30.6963 15.3447 30.2959 15.8721C29.8955 16.3994 29.3779 16.812 28.7431 17.1099C28.1084 17.4028 27.3833 17.5493 26.5678 17.5493Z" fill="#F4F4F7" fill-opacity="0.8"/>
</svg>
