<svg width="25" height="24" viewBox="0 0 25 24" fill="none" xmlns="http://www.w3.org/2000/svg">
<path d="M8.75 21H16.75M12.75 17V21M7.55 17H17.95C19.6302 17 20.4702 17 21.112 16.673C21.6765 16.3854 22.1354 15.9265 22.423 15.362C22.75 14.7202 22.75 13.8802 22.75 12.2V7.8C22.75 6.11984 22.75 5.27976 22.423 4.63803C22.1354 4.07354 21.6765 3.6146 21.112 3.32698C20.4702 3 19.6302 3 17.95 3H7.55C5.86984 3 5.02976 3 4.38803 3.32698C3.82354 3.6146 3.3646 4.07354 3.07698 4.63803C2.75 5.27976 2.75 6.11984 2.75 7.8V12.2C2.75 13.8802 2.75 14.7202 3.07698 15.362C3.3646 15.9265 3.82354 16.3854 4.38803 16.673C5.02976 17 5.86984 17 7.55 17Z" stroke="white" stroke-width="2" stroke-linecap="round" stroke-linejoin="round"/>
</svg>
